<?xml version="1.0" standalone="no"?>
<!DOCTYPE svg PUBLIC "-//W3C//DTD SVG 20010904//EN"
 "http://www.w3.org/TR/2001/REC-SVG-20010904/DTD/svg10.dtd">
<svg version="1.0" xmlns="http://www.w3.org/2000/svg"
 width="310.000000pt" height="310.000000pt" viewBox="0 0 310.000000 310.000000"
 preserveAspectRatio="xMidYMid meet">
<metadata>
Created by potrace 1.11, written by Peter Selinger 2001-2013
</metadata>
<g transform="translate(0.000000,310.000000) scale(0.100000,-0.100000)"
fill="#000000" stroke="none">
<path d="M144 2296 c-17 -8 -43 -30 -58 -49 l-26 -34 2 -699 3 -699 119 -3
c66 -1 123 1 128 6 5 5 9 189 9 418 -1 225 3 415 7 421 5 9 20 -8 44 -50 96
-165 403 -705 415 -729 35 -69 112 -101 176 -74 38 15 69 57 137 181 18 33 36
65 40 70 4 6 22 37 40 70 53 96 281 498 299 525 15 23 16 -5 21 -405 l5 -430
110 -3 c61 -2 120 0 133 3 l22 5 0 694 0 693 -23 34 c-48 72 -137 86 -197 31
-16 -15 -70 -98 -120 -186 -50 -87 -134 -233 -187 -325 -53 -91 -104 -180
-114 -197 -115 -205 -195 -342 -206 -354 -13 -13 -15 -13 -23 0 -15 24 -240
414 -407 705 -209 364 -207 360 -254 379 -47 19 -55 19 -95 2z"/>
<path d="M2359 1960 l-297 -300 -91 0 -92 0 3 -132 3 -133 90 -3 90 -3 300
-299 301 -300 182 0 c100 0 182 4 182 8 0 8 -328 330 -624 613 l-121 116 215
209 c118 115 287 280 375 366 l160 157 -190 1 -190 0 -296 -300z"/>
</g>
</svg>
